<?xml version="1.0" encoding="utf-8"?>
<!-- Generator: Adobe Illustrator 24.3.0, SVG Export Plug-In . SVG Version: 6.00 Build 0)  -->
<svg version="1.1" id="Layer_1" xmlns="http://www.w3.org/2000/svg" xmlns:xlink="http://www.w3.org/1999/xlink" x="0px" y="0px"
	 viewBox="0 0 149 149" style="enable-background:new 0 0 149 149;" xml:space="preserve">
<path d="M74.5,5C112.8,5,144,36.2,144,74.5S112.8,144,74.5,144S5,112.8,5,74.5S36.2,5,74.5,5 M74.5,0C33.4,0,0,33.4,0,74.5
	S33.4,149,74.5,149S149,115.6,149,74.5S115.6,0,74.5,0L74.5,0z"/>
<g>
	<path d="M94.1,80.7L94,86.4c20.1-0.8,30-7,35-12.8v10.7c-2,2.1-5,8.1-35.1,11.8l-0.1,6.4L81,91.4L94.1,80.7z"/>
	<path d="M54.9,80.7l0.1,5.8c-20.1-0.8-30-7-35-12.8v10.7c2,2.1,5,8.1,35.1,11.8l0.1,6.4L68,91.4L54.9,80.7z"/>
	<path d="M28,76.4l7-3v-9c0,0-8.6,1-12.6,7C22.4,71.4,25,74.4,28,76.4z"/>
	<g>
		<path d="M47.2,67.3c0,1.1,0.2,2,0.5,2.7c0.6,1.3,1.8,1.9,3.5,1.9c1,0,1.9-0.4,2.7-1.1c0.8-0.7,1.2-1.7,1.2-3.1
			c0-1.8-0.7-2.9-2.1-3.5c-0.8-0.3-2.1-0.5-3.8-0.5V60c1.7,0,2.9-0.2,3.6-0.5c1.2-0.5,1.8-1.6,1.8-3.1c0-1-0.3-1.9-0.9-2.5
			c-0.6-0.6-1.4-1-2.5-1c-1.2,0-2.2,0.4-2.7,1.2s-0.9,1.8-0.8,3.2h-4.9c0-1.3,0.3-2.6,0.7-3.8c0.4-1,1.1-2,2-2.9
			c0.7-0.6,1.5-1.1,2.5-1.4c0.9-0.3,2.1-0.5,3.5-0.5c2.6,0,4.6,0.7,6.2,2c1.6,1.3,2.4,3.1,2.4,5.3c0,1.6-0.5,2.9-1.4,4
			c-0.6,0.7-1.2,1.1-1.8,1.4c0.5,0,1.2,0.4,2.1,1.2c1.3,1.2,2,2.9,2,5.1c0,2.3-0.8,4.3-2.4,6s-3.9,2.6-7,2.6c-3.8,0-6.4-1.2-7.9-3.7
			c-0.8-1.3-1.2-3-1.3-5.2H47.2z"/>
		<path d="M75.9,55.5c0-0.4-0.2-0.9-0.5-1.4c-0.6-0.8-1.4-1.3-2.6-1.3c-1.7,0-2.9,1-3.7,2.9c-0.4,1.1-0.7,2.6-0.8,4.7
			c0.7-0.8,1.4-1.3,2.3-1.7c0.9-0.4,1.8-0.5,3-0.5c2.4,0,4.3,0.8,5.9,2.4c1.5,1.6,2.3,3.7,2.3,6.2c0,2.5-0.7,4.7-2.2,6.6
			c-1.5,1.9-3.8,2.9-7,2.9c-3.4,0-5.9-1.4-7.5-4.2c-1.2-2.2-1.9-5.1-1.9-8.5c0-2,0.1-3.7,0.3-5c0.3-2.3,0.9-4.2,1.8-5.7
			c0.8-1.3,1.8-2.3,3-3.1c1.2-0.8,2.7-1.2,4.4-1.2c2.5,0,4.5,0.6,6,1.9c1.5,1.3,2.3,3,2.5,5.1H75.9z M69.7,70.6
			c0.8,0.9,1.8,1.4,3,1.4c1.2,0,2.1-0.4,2.8-1.3c0.7-0.9,1-2,1-3.4c0-1.6-0.4-2.8-1.1-3.6s-1.7-1.2-2.8-1.2c-0.9,0-1.7,0.3-2.4,0.8
			c-1,0.8-1.6,2.1-1.6,3.9C68.5,68.5,68.9,69.7,69.7,70.6z"/>
		<path d="M100.7,52.1c1.4,2.4,2.1,5.8,2.1,10.2c0,4.4-0.7,7.8-2.1,10.2c-1.4,2.4-3.8,3.6-7.2,3.6c-3.4,0-5.8-1.2-7.2-3.6
			c-1.4-2.4-2.1-5.8-2.1-10.2c0-4.4,0.7-7.8,2.1-10.2c1.4-2.4,3.8-3.6,7.2-3.6C96.9,48.5,99.3,49.7,100.7,52.1z M90.4,69.4
			c0.5,1.6,1.5,2.4,3.1,2.4c1.6,0,2.6-0.8,3.1-2.4s0.7-4,0.7-7.1c0-3.2-0.2-5.6-0.7-7.2s-1.5-2.3-3.1-2.3c-1.6,0-2.6,0.8-3.1,2.3
			c-0.5,1.6-0.8,3.9-0.8,7.2C89.7,65.5,89.9,67.8,90.4,69.4z"/>
		<path d="M113.2,53.2c0,1.3-0.4,2.3-1.2,3.1c-0.8,0.8-1.9,1.2-3.2,1.2c-1.4,0-2.5-0.4-3.2-1.2c-0.8-0.8-1.2-1.8-1.2-3.1
			c0-1.3,0.4-2.3,1.2-3.1c0.8-0.8,1.9-1.2,3.2-1.2c1.4,0,2.5,0.4,3.2,1.2C112.8,50.9,113.2,52,113.2,53.2z M108.8,55.7
			c0.7,0,1.2-0.2,1.5-0.7c0.3-0.5,0.5-1.1,0.5-1.8c0-0.8-0.2-1.4-0.5-1.8c-0.3-0.5-0.8-0.7-1.5-0.7c-0.7,0-1.2,0.2-1.6,0.7
			c-0.3,0.5-0.5,1.1-0.5,1.8c0,0.8,0.2,1.4,0.5,1.8C107.5,55.5,108.1,55.7,108.8,55.7z"/>
	</g>
	<path d="M121,76.4l-7-3v-9c0,0,8.5,0.6,12.5,6.6C126.5,71.1,124,74.4,121,76.4z"/>
</g>
</svg>
