<?xml version="1.0" encoding="utf-8"?>
<!-- Generator: Adobe Illustrator 24.3.0, SVG Export Plug-In . SVG Version: 6.00 Build 0)  -->
<svg version="1.1" id="Layer_1" xmlns="http://www.w3.org/2000/svg" xmlns:xlink="http://www.w3.org/1999/xlink" x="0px" y="0px"
	 viewBox="0 0 328.7 352.8" style="enable-background:new 0 0 328.7 352.8;" xml:space="preserve">
<style type="text/css">
	.st0{fill:#E6E6E6;}
</style>
<g>
	<path class="st0" d="M0.5,77.9c1,5.2,0.9,10.6,1.7,15.8c0.6,4,1.6,8.1,3.1,11.9c9.9,26.6,20,53.1,29.8,79.7
		c6.1,16.7,9.3,34.1,12.5,51.6c2,10.5,4.4,20.9,6.7,31.3c1.4,6.3,1.7,12.5-0.5,18.7c-2.2,6.2-1.2,12.2,2.8,17.2
		c3.8,4.7,8,9.2,12.7,12.9c8.6,6.8,18.6,11.5,29,14.9c24,7.9,48.1,15.1,73.2,18.7c6,0.9,12.1,1.6,18.1,1.8
		c23.3,0.8,46.7,0.7,69.9-2.8c16.6-2.5,32-7.8,45.2-18.5c6.8-5.6,11.2-12,10.7-21.2c-0.3-5.5-0.1-11.1-0.1-18.2
		c8.7-6.9,11.5-17.7,12.6-29c2.4-24.2-0.6-48-6.9-71.4c-1.9-7-4.9-13.7-7.5-20.5c-1.8-4.7-1.8-9.2-0.7-14.2
		c0.9-4.3,0.9-9.3-0.2-13.6c-2.4-8.9-5.5-17.6-8.8-26.1c-1.6-4.3-2.8-8.1-0.3-12.5c0.8-1.3,1-3.3,0.7-4.9
		c-3.7-21.5-6.5-43.2-14.1-63.8c-3.1-8.4-7-16.5-11.1-24.4C274.1,2.2,266-0.7,256.1,1c-10.4,1.8-19.1,6.3-25.9,14.8
		c-5.8,7.2-12.3,13.7-18.8,20.3c-4.3,4.3-9.3,2.9-14.4,0.5c-0.5-1.9-1.3-3.7-1.5-5.5c-1.6-17-12.1-25.8-27.6-29.8
		c-7.4-1.9-15-1.7-22.2,1.3c-5,2.1-6.6,4.8-6.4,10.3c0.1,4.8,1.9,9,4.8,12.7c2.9,3.8,5.9,7.6,9.4,12.1c-8.8,2.4-17,4.3-25,6.8
		c-7.7,2.4-15.1,2.2-22.9-0.2C89,39,71.9,35.4,54.5,33.5c-8.6-0.9-17.5-0.1-26.1,1.2C20.1,36,14,41.6,9.9,48.8
		C6.7,54.3,4,60,1.5,65.8C-0.2,69.6-0.3,73.6,0.5,77.9z M188.3,37.4c-1.4-1.4-2.9-2.4-3.9-3.8c-1.1-1.6-1.7-3.5-2.7-5.1
		c-5.3-7.6-12.1-12.2-21.6-11.8c-6.1,8.7,0.6,13.8,5.2,20.3c-10.8-1.3-22.2-18-20.6-28.6c9.6-6.5,27.6-4.1,37.5,5.1
		C189.3,20,192.2,30.2,188.3,37.4z M163.3,21.8c10,2.8,13.5,6.5,13.4,13.6C167,33.7,164.2,31.1,163.3,21.8z M299.2,102.5
		c-1.6-0.4-2.1-1.1-2.5-1.9c-4.7-8.5-9.4-17-13.9-25.6c-1.3-2.5-2.3-5.3-3-8.1c-1.7-7.3-3.1-14.7-4.9-22c-0.4-1.5-1.6-2.8-3-4.9
		c-4.4,3-8.5,5.4-12.2,8.4c-3.2,2.6-6.3,2.7-10.1,1.4c-9.2-3-18.6-5.5-27.9-8.2c-2.3-0.7-4.6-1.3-8.4-2.4c3.1-3.2,5.2-5.5,7.4-7.7
		c4.9-5.1,10-10,14.6-15.3C241.6,9,249.4,5.5,258.9,5c5.9-0.3,10.6,1.6,13.7,6.6c3.1,4.9,6.4,9.8,8.6,15.1c8.4,19.5,13.3,40,16,61
		C297.9,92.7,298.6,97.6,299.2,102.5z M269.4,47.2c3.1,4.6,4.4,9.4,4.2,15.8c-5-3.3-9.3-6.1-13.9-9.2
		C262.5,50.4,265,47.7,269.4,47.2z M301.1,161.7c-5.9,1.1-12.1,1.6-18.1,1.4c-28.7-1-57.4-1.9-86-3.6c-18.4-1.1-36.7-3.4-55.1-5.5
		c-7.3-0.8-10-3.9-11.2-11.2c-1-6-1.6-12.1-2.9-18c-3.1-14-10.6-24.4-25.1-28.5c-8.4-2.4-16.4-1.3-23.2,4.8c-1,0.9-1.5,2.6-2.7,4.8
		c2.1-0.4,3.1-0.3,3.8-0.7c6.1-3.5,12.2-7.2,19.6-3.5c0.4,0.2,1,0,1.4-0.1c3.8-0.7,6.5,1.2,9.1,3.6c6.7,6.1,10.8,13.7,12.5,22.5
		c1.1,5.7,2.1,11.5,2.7,17.3c0.7,7,4.4,11.1,11,12.8c2.6,0.7,5.1,1.7,7.7,2c19.3,2,38.6,4.6,58,5.6c26.7,1.3,53.5,1.3,80.2,1.9
		c2.2,0,4.4,0.1,6.6,0c3.7-0.2,6.1,1.4,6.9,5.1c3.6,15.9,8.2,31.7,7.8,48c-0.4,18.2-1.9,36.4-3.1,54.6c-0.5,6.8-1.6,8.7-5,12.4
		c4-21.6,3.1-44.8-2.3-52.7c-0.6-0.1-1.4-0.4-2.1-0.3c-1.4,0.2-2.9,0.5-4.2,0.9c-12.7,3.8-25.7,4.9-38.9,4.1
		c-1.8-0.1-3.6,0.4-5.3,0.6c0.8,9.4,2.4,18.1,1.9,26.6c-0.5,8.8-3,17.5-4.7,26.6c4.4,5.8,10.7,10.3,17.6,11
		c12.3,1.3,23.8-1,34.6-9.4c-3.9,6-6.6,8.2-13,11.2c-8.3,3.8-17.3,5.2-26.2,5.4c-37.2,0.9-74.4,0.7-111.1-7.1
		c-8.7-1.9-17.4-4.2-25.9-7.2c-7.7-2.7-9.6-6.4-9.1-14.6c0.1-1.7,0.3-3.4,0.7-5c3.4-13.6,6.4-27.4,10.4-40.9
		c5.5-18.9,7.8-38,6.7-57.6c-0.1-2.5,0.4-5.3-2-7.3c-4.4,1.9-3,5.6-2.5,8.3c1.5,9.5,1,19.2-0.9,28.3c-5.8,26.8-12.6,53.3-19,79.9
		c-11.1,4.4-20.8,2.1-29.6-4.9c-2.7-2.1-3.7-5.1-2.8-8.5c1.1-4.5,2.1-9,3.5-13.3c3.7-11.8,7.7-23.5,11.5-35.3
		c6.3-19.5,10.5-39.2,9.8-60c-0.6-16.1-7.3-29.4-14.7-42.8c-0.5-1-1.7-1.6-3-2.8c-0.6,1.7-1.7,3.2-1.4,4.1c0.9,2.7,2.2,5.4,3.8,7.8
		c12,18.1,12.9,38.4,9.2,58.4c-3.9,20.9-11.1,41.2-16.9,61.7c-0.5,1.9-1.9,3.6-2.9,5.3c-1.5-2.1-2-3.9-2.1-5.7
		c-0.5-10.4-1-20.9-1.5-31.3c-1-20.4-3.8-40.6-8.2-60.6c-5-22.5-10.7-44.8-16.1-67.2c-0.7-3.1-2.2-6.3-1.3-9.9
		c2.1,0.5,3.7,0.8,5.3,1.3c16.5,5.3,16.4,5.3,23.1,21.6c1.2,3,2.9,5.8,4.4,8.8c0.5-0.2,1-0.4,1.6-0.6c-1.2-4.4-2.2-8.8-3.6-13.1
		c-2.8-8.7-1.1-16.4,5.3-22.8c7.4-7.4,15.6-14,25.4-18.1c16.7-7.2,33.8-13.2,52-16.1c4.5-0.7,8-0.1,11.6,2.4c4.1,2.9,8.8,3.6,14.4,2
		c-1.7-2-3.1-3.6-4.8-5.5c25-3.4,74.5,6.2,91.5,21.3c-4.9,4-0.1,7.6,0.5,11.3c0.5,2.7,1.6,5.3,6.2,3.3c-1.1-3.5-2.2-7.1-3.3-10.6
		c2.4-0.8,3.2,1.3,4.3,2.7c8.8,11.1,17,22.4,22.1,35.8c2.3,6.1,5.2,12,7.9,18c3.9,8.5,5.5,17.6,6.4,26.8
		C309.4,158,307.7,160.5,301.1,161.7z M250.6,247.6c0-0.9,0.5-1.8,0.8-2.7c13.2-1.6,26.1-3.2,40.4-5c0.8,4.8,1.5,8.8,2,12.8
		c1.4,11.2,0.9,22.3-2.4,33.1c-1.4,4.5-3.6,8.7-8.3,10.5c-10,3.8-20.2,4.9-30.5,1.2c-5.4-1.9-5.8-3.1-5.2-8.7
		C248.9,275.1,251.3,261.5,250.6,247.6z M302.9,292.5c0.1-1,0.1-2,0.4-2.9c5.4-16.1,5.9-32.9,7.1-49.5c1.6-22.3-2.2-44-7.8-65.5
		c-0.6-2.5-0.8-5-1.2-7.8c2-0.4,3.1-0.7,5.2-1.2c3.4,10.1,6.9,19.4,9.7,28.8c5.4,18,6.8,36.7,7.2,55.4c0.2,9.3-1.5,18.4-4.3,27.2
		C316.6,285,310.2,291,302.9,292.5z M62,279c1.8,2.3,2.8,3.7,3.8,5c5.8,7.3,13.4,11,22.8,10.7c3.2-0.1,6.3-0.2,9.5-0.5
		c3.6-0.3,6.4,0.9,9.5,2.8c5.1,3.2,10.4,6.7,16.1,8.2c23.7,6.3,47.8,10.5,72.5,10.9c8.5,0.1,17,0.5,25.5,0.8
		c17.8,0.7,35.5-0.2,52.9-3.8c6.7-1.4,13-3.9,18.2-8.7c4.8-4.4,10.6-6.6,17.7-8.1c0,5.5-0.1,10.1,0,14.7c0.1,4.9-1.6,9.1-4.9,12.5
		c-2.7,2.8-5.6,5.4-8.8,7.6c-9.6,7-20.7,10.6-32.3,12.6c-20.4,3.6-41.1,4.2-61.7,3.9c-10.9-0.1-21.8-1.4-32.6-3
		c-21.4-3.3-42.2-8.8-62.8-15.6c-11.8-3.9-23.5-7.8-33.8-15c-7.3-5.1-13.1-10.9-11.5-20.9c0.4-2.8-0.3-5.8-0.4-8.7
		C61.6,283,61.8,281.5,62,279z M3.7,72c0.8-8.1,5.8-14.3,9.6-21c3.8-6.9,9.8-10.9,17.4-12c6.9-1,14.1-1.9,21-1.3
		c17.2,1.4,34.1,5,50.5,10.2c1.4,0.4,2.6,1.5,4.5,2.6c-9,5.1-17.3,9.6-25.4,14.4C73,69.9,67.1,77.2,63,85.4
		c-11.6-2.6-30.2-9.9-39.3-15.4c-2-1.2-4-3.3-7,0.8c4.1,3.2,7.9,6.1,12.2,9.5c-1.9,0.9-3,1.4-4.1,1.9c-1.1,0.6-2.1,1.3-3.1,2
		c0.1,0.4,0.2,0.7,0.3,1.1c3.3,0.2,6.5,0.4,9.9,0.6c18,60.9,29.8,122.4,29.7,186.5c-0.9-1.7-1.8-2.8-2.1-4
		c-2.5-11.1-4.8-22.3-7.4-33.4c-4.3-18.2-7.8-36.6-13.5-54.3c-8.8-27.7-18.9-55-30.8-81.7C3.9,90.5,2.7,81.5,3.7,72z"/>
	<path class="st0" d="M134.1,239.7c0.2,13.5-4.6,25.7-8.9,38c-2.3,6.4-0.8,11.1,4.3,14.6c11.9,8.2,25.1,11.6,39.3,8.5
		c7.7-1.7,13.1-7.2,15.1-15.3c2.9-11.5,5.4-23.1,5.8-35.1c0.4-13.7-0.3-14.1-14.1-14.7c-8.2-0.4-16.4-1.5-24.6-2.3
		c-2.9-0.3-5.8-0.7-8.7-0.7C136.9,232.6,134,234.6,134.1,239.7z M131.4,276.7c1.4-2.2,2.7-4.6,3.4-7.1c1.5-5.6,2.5-11.3,3.6-17
		c1-4.9,1.8-9.9,2.8-15.6c14.6,2.1,28.6,4.2,42.6,6.3c0.6,2,1,2.7,1,3.4c0.8,14-2.6,27.4-6.8,40.6c-1.1,3.6-3.9,6-7.2,7.8
		c-5.2,2.9-10.7,2.9-16.3,2.1c-7.5-1-14.8-2.7-21-7.4C128.4,285.9,128,282.2,131.4,276.7z"/>
	<path class="st0" d="M99,104.9c9.2,6.8,17,25.2,14.8,33.3c-7.5-7.8-9.7-18-14.4-26.7C98.6,110.1,99.1,108.1,99,104.9z"/>
	<path class="st0" d="M88.8,88.4c-4.3,3.5-8.6,6.4-14.7,6.4C78.2,87.9,85.3,84.8,88.8,88.4z"/>
	<path class="st0" d="M264.9,157.3c4.5-4.4,8.5-4.5,15.6-1C275.5,159.1,270.6,158.6,264.9,157.3z"/>
	<path class="st0" d="M185.5,151.6c4.9-2.5,9.7-2.4,15,0.5C193.6,155.5,190.2,155.3,185.5,151.6z"/>
	<path class="st0" d="M161.2,150.1c5.6-2.5,6.4-2.4,11.8,1.7C168,155,167.1,154.8,161.2,150.1z"/>
	<path class="st0" d="M210.9,153.3c6.2-1.5,11.1-4.2,16.2,0.2C221.8,156.9,217.1,155.4,210.9,153.3z"/>
	<path class="st0" d="M295.1,131.1c3.9,2.8,5.8,6.4,5.6,12.1C294.7,140.3,295.3,135.5,295.1,131.1z"/>
	<path class="st0" d="M136.3,113.3c3.1,4.1,4.1,8.1,2.9,13.6C134.7,122.3,134.5,120.8,136.3,113.3z"/>
	<path class="st0" d="M281.3,100.9c5.9,0.6,6.1,4.4,6.6,7.6c0.2,1-1.3,2.3-2.9,5C283.5,108.3,282.5,105,281.3,100.9z"/>
	<path class="st0" d="M118.7,91c6.4,0.7,10.7,1.5,12.4,7.3C125.1,99.5,122.8,95.3,118.7,91z"/>
	<path class="st0" d="M240.9,155.2c7-3.8,9.6-3.6,13,1.2C249.4,157.9,245.5,155.7,240.9,155.2z"/>
	<path class="st0" d="M97.6,87.7c4.3-2.7,7.9-3.2,12.1,1.4C104.9,90.6,101.3,90.5,97.6,87.7z"/>
	<path class="st0" d="M291.8,153.6c2.7-0.7,5.3-3.6,8.9-0.4C297.5,154.6,294.9,156.3,291.8,153.6z"/>
	<path class="st0" d="M141.6,139.6c1.6,1.9,3.2,3.8,5.5,6.4C141.1,146.4,140.7,143.6,141.6,139.6z"/>
</g>
</svg>
