<?xml version="1.0" encoding="utf-8"?>
<!-- Generator: Adobe Illustrator 24.3.0, SVG Export Plug-In . SVG Version: 6.00 Build 0)  -->
<svg version="1.1" id="Layer_1" xmlns="http://www.w3.org/2000/svg" xmlns:xlink="http://www.w3.org/1999/xlink" x="0px" y="0px"
	 viewBox="0 0 384.3 354.7" style="enable-background:new 0 0 384.3 354.7;" xml:space="preserve">
<style type="text/css">
	.st0{fill:#E6E6E6;}
</style>
<g>
	<path class="st0" d="M58.4,193.7c-1.7,13.6-1.6,27.1,6,39.3c6.4,10.2,17.3,14.2,28.8,10.1c4.4-1.6,8.5-4.3,12.7-6.5
		c2.1-1.1,4.2-2.9,6.3-2.8c8.9,0.4,14.7-4.9,20.8-10c2.9-2.4,6.3-5.1,9.9-5.8c21.3-3.9,42.7-5.9,63.5,2.5
		c13.3,5.4,26.5,11,39.3,17.3c9.5,4.6,17.6,2.9,25.6-2.8c3.2-2.3,6.1-5,9.1-7.6c7.9-15.7,14.6-31.7,15.8-49.8c0.4,1.9,1,3.9,1.1,5.8
		c0.2,2.4,0.3,4.8-0.1,7.1c-2.2,13.8-5.6,27.2-16.8,37c-3.3,8.5-9.6,13.3-18.6,14.4c-3.8,0.5-7.2,1.3-10.9,4.4
		c5.9,3.6,14.3,2.8,14.1,11.6c-3.8,3-7.6,6.1-11.6,9.3c1.5,4.2,2.7,7.5,3.2,8.9c-9.4,13.2-18.1,25.3-26.9,37.7
		c-0.4,16.5,8.5,32.4,23,40.9c9.9-6.5,22.1-24.3,40.5-59.3c0.3-1.4,0.7-2.7,1-4.1c-0.4-0.1-0.8-0.2-1.2-0.4
		c-0.6,0.9-1.1,1.9-1.7,2.8c-8.3,12.5-16.7,25.1-25,37.6c-4.1,6.1-7,13.2-14.2,17.9c-8.8-10.6-16-21.1-16.8-33.7
		c4-4.8,8.1-7.9,9.8-12.1c4.1-10.4,10.9-18.2,19.8-24.3c-5.4-11.8-5.4-11.8,3.8-15.2c6.2,5.4,12.4,10.8,18.7,16.2
		c6,8.8,11.4,10.5,19.6,5.5c5.4-3.3,10-7.8,16.2-12.7c4.7,1.7,10.4,3.3,15.7,5.7c8.7,3.8,16.2,2.5,23.1-3.8
		c14.6-13.5,21-30.5,22.1-50c0.5-8.8-2.6-15.9-9.5-20.8c-6.7-4.8-13.9-9.4-21.5-12.6c-22.7-9.5-46-17.3-69.5-24.8
		c-33.8-10.7-62.8-30.9-87.9-56c-7.2-7.2-12.5-15.8-13.2-26.2c-0.9-12.9-8.2-23.1-13.6-33.9c-4.8-9.7-14.4-10.9-24.5-6.4
		c-13.5,6-24.4,15-32.7,27C100,88.2,88,105,80,124.4C70.7,146.9,61.5,169.3,58.4,193.7z M303.5,177.9c7,2.9,14.1,4,19.8,8.8
		c12.8,5.1,26.5,8.8,38.2,15.7c17.5,10.4,19.4,22.9,13.8,38.3c-4.9,13.5-15.6,28.4-25.4,34c-1.4-1.3-3-2.7-4.6-4.2
		c6.7-0.6,6.8-0.7,4.6-4.8c0,0,0,0,0-0.1l-0.1-0.1c0,0,0,0,0,0.1c-4.1-2.2-8.2-4.4-12.9-6.9c-0.7,3.4-1.1,5.2-1.5,7
		c-2.7,1.7-5.5,3.4-8.2,5.1c-0.6-0.5-1.2-1.1-1.8-1.6c1.6-3.2,3.2-6.5,5.2-10.5c-1.7-0.9-3.3-1.8-4.8-2.6
		c-5.9,11.9-14.2,21.4-25.5,28.2c-4.6-1.5-8.7-2.9-12.7-4.2c-1.8-2.9-3.1-6.3-5.5-8.7c-6.3-6.5-12.9-12.8-13.3-23.2
		c4.6-2.8,10.1-6.3,16.4-10.2c11.6,5.1,23.8,10.5,35.9,15.9c-3-2.4-5.7-5.2-9-7.1c-8.5-4.9-17.2-9.4-26.4-14.4
		C297,216.3,304.2,199.2,303.5,177.9z M143,212.1c17.3-34.9,29.1-70.6,38-108.3c30.6,30.8,64.3,55.9,107.4,68.8
		c0.3,4.2,1.3,8.9,0.7,13.3c-1.7,12.3-5,24.2-11.8,34.7c-2.5,4-5.8,7.6-9.4,10.7c-6.2,5.3-13.1,6.5-21,2.5
		c-10.6-5.4-21.6-10-32.5-14.8c-21.5-9.4-43.7-11-66.6-6.9C146.7,212.3,145.5,212.1,143,212.1z M127.3,217.4
		c1.7-3.6,2.4-5.5,3.3-7.2c7.7-14.7,15.5-29.3,23.3-43.9c1.4-2.6,2.9-5.1,4.3-7.6C153.4,181.3,139.6,208.5,127.3,217.4z M142,132.8
		c3.7,1.3,6.1,2.1,9.6,3.3c-5.6,12.7-9,25.6-17.8,36c-0.3,0.4-2.1-0.5-3.9-1C134.8,158.6,144.5,148,142,132.8z M136.6,144.3
		c-1.9,8.5-4.7,16.5-12.9,21.5C128,158.7,132.3,151.5,136.6,144.3z M124.7,156.2c-0.7-0.4-1.5-0.7-2.2-1.1
		c2.5-5.6,4.9-11.2,8.4-19.1C132.2,145.9,127,150.5,124.7,156.2z M135.4,131.5c3.4,4.6,3.5,4.7,1.5,11.8
		C136.4,139.4,135.9,135.5,135.4,131.5z M127.3,201.2c6.2-12.4,12.5-24.8,18.7-37.2C141.9,177.4,136.5,190.2,127.3,201.2
		L127.3,201.2z M95.2,112.2c5.8-9.9,11.6-19.9,17.5-29.9c8.9-15.1,20.5-27.2,37-34c5.5,1.5,7.8,5.6,8.9,10.5c5.5,24.6,4,48.7-6,73.3
		c-6.2-1.9-11.7-3.7-17-5.3c-13.5,8.6-20,23.8-17.2,40.3c4.2,3,8.8,6.1,14.4,10.1c-12.8,22.5-23.6,45.9-47.7,59.1
		c-11.2-3.5-14.2-11-14.3-19.9C70.1,179.7,76.3,144.4,95.2,112.2z"/>
	<path class="st0" d="M7.1,84.3c2.2,0.4,4.4,0.6,6.5,1.3c14.5,5.2,29,10.5,43.4,15.9c2,0.8,3.6,2.5,5.4,3.9c-1.9,0.1-3.9,0.6-5.6,0
		C41.6,100,26.4,94.5,11.2,88.9C9.5,88.2,8.1,86.8,7.1,84.3z"/>
	<path class="st0" d="M117.9,21c0.6,6.9,0.1,13.9,0.1,23.4c-5.9-12.8-7.2-31.1-3.9-44.4C120.7,6.5,117.3,14.2,117.9,21z"/>
	<path class="st0" d="M43.1,150.5c-14.2,1.9-28.5,3.8-42.7,5.7c-0.1-1-0.3-1.9-0.4-2.9C13.8,148.8,28,147.1,43.1,150.5z"/>
	<path class="st0" d="M63.6,106c-0.3-0.2-0.7-0.3-1-0.5c0,0-0.1-0.1-0.1-0.1c0.1,0,0.2,0,0.3,0C63,105.6,63.3,105.8,63.6,106z"/>
	<path class="st0" d="M79.6,65C79.6,65.1,79.7,65.1,79.6,65C79.7,65.1,79.6,65.1,79.6,65z"/>
	<path class="st0" d="M79.4,64.7c0.2,0.1,0.3,0.2,0.4,0.3C79.8,65,79.6,64.9,79.4,64.7L79.4,64.7z"/>
	<path class="st0" d="M79.8,65C79.8,65,79.8,65,79.8,65L79.8,65z"/>
	<path class="st0" d="M79.7,65.1C79.7,65.2,79.7,65.2,79.7,65.1L79.7,65.1z"/>
	<path class="st0" d="M79.4,64.8c0.1,0.1,0.2,0.2,0.2,0.3C79.6,65,79.5,64.9,79.4,64.8c-1.1-0.3-2.7-0.3-3.3-1
		C63.9,49.1,51.4,34.7,42.8,17.4c-0.3-0.5,0.2-1.4,0.3-2.1C50.6,19,70.1,45.6,79.4,64.8L79.4,64.8C79.4,64.7,79.4,64.8,79.4,64.8
		C79.4,64.8,79.4,64.8,79.4,64.8z"/>
	<path class="st0" d="M316.9,186.9c2.2,0,4.4,0,6.7,0c1.4,1.5,2.9,3,4.3,4.4C324.2,189.8,320.5,188.3,316.9,186.9z"/>
	<path class="st0" d="M328.2,191.6c0,0,0.1-0.1,0.1-0.1c1.6,0.8,3.2,1.6,4.8,2.4c2.4,0.8,4.8,1.6,7.2,2.3c1.6,0.8,3.2,1.6,4.8,2.4
		c1.6,0.8,3.2,1.6,4.8,2.4c0.2,0.1,0.3,0.3,0.5,0.4c-0.2-0.1-0.4-0.1-0.6-0.2c-1.6-0.8-3.2-1.6-4.8-2.4c-1.6-0.8-3.2-1.6-4.9-2.4
		c-2.4-0.8-4.7-1.6-7.1-2.5C331.4,193.2,329.8,192.5,328.2,191.6c-0.1-0.1-0.3-0.2-0.4-0.3c0.2,0.1,0.3,0.1,0.5,0.2
		C328.3,191.5,328.3,191.6,328.2,191.6z"/>
	<path class="st0" d="M323.5,186.9c-0.1-0.1-0.1-0.1-0.2-0.2c0,0,0,0,0,0C323.4,186.8,323.5,186.8,323.5,186.9
		C323.6,186.9,323.5,186.9,323.5,186.9z"/>
	<path class="st0" d="M333.6,243.7c1.6,0.9,3.1,1.7,4.7,2.6c1.3,0.9,2.6,1.7,3.9,2.6c-1.6-0.5-3.2-1-4.8-1.6
		c-1.5-0.9-3.1-1.7-4.6-2.6c-2-1-3.9-2-5.9-3c0.3-0.5,0.6-1.1,0.8-1.6C329.6,241.2,331.6,242.4,333.6,243.7z"/>
	<path class="st0" d="M315.9,186.6c0.2,0,0.4,0,0.6,0.1c0.1,0.1,0.3,0.1,0.4,0.2c-0.2,0-0.4,0-0.5,0
		C316.2,186.8,316,186.7,315.9,186.6z"/>
	<path class="st0" d="M312,184.6c1.3,0.7,2.6,1.4,3.9,2c-1.5-0.1-2.9-0.3-4.4-0.4C311.7,185.7,311.8,185.1,312,184.6z"/>
	<path class="st0" d="M331.5,233.8c9.1,5,18.3,10.1,27.4,15.1c-11.1-1.3-20-7.4-29-13.2c-1.5-0.9-3-1.8-4.5-2.8
		c-1.2-0.9-2.4-1.8-3.6-2.7c1.5,0.5,3,1.1,4.5,1.6C328,232.5,329.7,233.1,331.5,233.8z"/>
	<path class="st0" d="M345,256.2C345,256.2,345,256.2,345,256.2C345,256.2,345,256.2,345,256.2L345,256.2z"/>
	<path class="st0" d="M345.1,253.9c-0.1,0-0.1,0-0.2,0c0,0,0-0.1,0-0.1C344.9,253.7,345.1,253.9,345.1,253.9z"/>
	<path class="st0" d="M342.6,249.1c-0.2-0.1-0.3-0.2-0.5-0.3c0.2,0.1,0.4,0.1,0.6,0.2L342.6,249.1z"/>
	<path class="st0" d="M321.7,230.2c-0.2-0.1-0.4-0.2-0.7-0.2c-0.2-0.1-0.3-0.2-0.5-0.3c0.2,0.1,0.4,0.1,0.6,0.2
		C321.4,229.9,321.6,230.1,321.7,230.2z"/>
	<path class="st0" d="M340.3,229.8c0.2,0.2,0.5,0.4,0.7,0.6c-0.3-0.1-0.6-0.3-0.8-0.4c-1.6-0.8-3.1-1.6-4.7-2.4
		c-0.2-0.1-0.4-0.2-0.5-0.3c0.2,0.1,0.4,0.1,0.7,0.2C337.2,228.2,338.7,229,340.3,229.8z"/>
	<path class="st0" d="M335.9,250.9c1.7,0.7,3.3,1.5,5,2.2c1.4,0.3,2.7,0.5,4.1,0.8c0,0.8,0,1.5,0,2.3c-1.7-0.6-3.5-1.2-5.2-1.8
		c-1.6-0.8-3.3-1.5-4.9-2.3c-1-0.4-2-0.9-3.1-1.3c0.1-0.4,0.2-0.7,0.3-1.1C333.3,250.1,334.6,250.5,335.9,250.9z"/>
	<path class="st0" d="M320.5,229.6c-0.2,0-0.3-0.1-0.3-0.1C320.2,229.5,320.4,229.6,320.5,229.6z"/>
	<path class="st0" d="M320.2,229.5C320,229.5,320,229.5,320.2,229.5L320.2,229.5z"/>
	<path class="st0" d="M320.6,229.6C319.8,229.1,320.1,229.3,320.6,229.6C320.6,229.6,320.5,229.6,320.6,229.6
		C320.5,229.6,320.6,229.6,320.6,229.6z"/>
	<path class="st0" d="M359.8,249.2c-0.2,0-0.3-0.1-0.5-0.1c-0.1-0.1-0.3-0.2-0.4-0.2c0.2,0,0.4,0.1,0.6,0.1
		C359.5,249,359.7,249.1,359.8,249.2z"/>
	<path class="st0" d="M359.8,249.2L359.8,249.2C359.8,249.2,359.8,249.2,359.8,249.2C359.8,249.2,359.8,249.2,359.8,249.2z"/>
	<path class="st0" d="M359.8,249.3c0.1,0.1,0.2,0.2,0.3,0.3C360,249.4,359.9,249.4,359.8,249.3z"/>
	<path class="st0" d="M359.8,249.2C359.8,249.2,359.8,249.2,359.8,249.2c0.4,0.1,0.7,0.1,0.8,0.2
		C360.5,249.4,360.2,249.3,359.8,249.2z"/>
	<path class="st0" d="M360.5,249.4C360.6,249.4,360.6,249.4,360.5,249.4L360.5,249.4z"/>
	<path class="st0" d="M360.1,249.5C360.4,249.7,360.5,249.8,360.1,249.5L360.1,249.5z"/>
	<path class="st0" d="M345,256.2C345,256.2,345.1,256.2,345,256.2c0.1,0,0.1,0,0.2,0C345.1,256.2,345.1,256.2,345,256.2z"/>
	<path class="st0" d="M349.9,256.3c-0.1,0-0.1,0-0.2,0c0-0.1,0-0.1,0-0.2C349.7,256.1,349.9,256.3,349.9,256.3z"/>
	<path class="st0" d="M349.9,258.5L349.9,258.5c1.5,0.1,3.1,0.1,4.6,0.2c0,0.7,0,1.4,0,2.1c-1.6-0.7-3.2-1.4-4.8-2.1c0,0,0,0,0,0
		l0,0c-1.5-0.8-3-1.6-4.6-2.4c1.5,0,3,0,4.5,0C349.8,257,349.8,257.8,349.9,258.5z"/>
	<path class="st0" d="M334.5,227.1C334.3,227,334.3,227,334.5,227.1L334.5,227.1z"/>
	<path class="st0" d="M334.5,227.1c0.1,0,0.2,0.1,0.4,0.1l0,0C334.7,227.2,334.6,227.1,334.5,227.1z"/>
	<path class="st0" d="M334.6,227C334.4,226.9,334.3,226.8,334.6,227L334.6,227z"/>
	<path class="st0" d="M334.9,227.2C334.9,227.2,334.9,227.2,334.9,227.2c-0.1-0.1-0.2-0.2-0.3-0.2
		C334.7,227,334.8,227.1,334.9,227.2z"/>
	<path class="st0" d="M354.7,258.7c-0.1,0-0.1,0-0.2,0c0-0.1,0-0.1,0-0.2L354.7,258.7z"/>
	<path class="st0" d="M350.4,213.4c0.1,0,0.1,0,0.2,0C350.6,213.4,350.5,213.4,350.4,213.4C350.4,213.4,350.4,213.4,350.4,213.4z"/>
	<path class="st0" d="M350.7,213.6C350.7,213.6,350.7,213.6,350.7,213.6C350.7,213.6,350.7,213.6,350.7,213.6z"/>
	<path class="st0" d="M350.7,213.5c0,0-0.1,0-0.1,0C350.7,213.5,350.7,213.5,350.7,213.5z"/>
	<path class="st0" d="M350.7,213.6C350.8,213.6,350.8,213.6,350.7,213.6C350.8,213.6,350.8,213.6,350.7,213.6z"/>
	<path class="st0" d="M350.8,213.7C350.9,213.7,350.9,213.7,350.8,213.7L350.8,213.7z"/>
	<path class="st0" d="M350.4,213.4L350.4,213.4c0.1,0.1,0.2,0.1,0.2,0.2C350.6,213.5,350.5,213.5,350.4,213.4z"/>
	<path class="st0" d="M350.9,213.5C351,213.6,351,213.6,350.9,213.5L350.9,213.5z"/>
	<path class="st0" d="M350.9,213.5c0,0-0.1,0-0.1,0C350.8,213.5,350.8,213.5,350.9,213.5z"/>
	<path class="st0" d="M344.9,210.8c-2.4-0.8-4.7-1.6-7.1-2.4c-1.6-0.8-3.2-1.6-4.8-2.4c-1.6-0.8-3.2-1.6-4.8-2.4
		c-2.4-0.8-4.8-1.6-7.1-2.4c-0.3-0.2-0.5-0.4-0.8-0.6c0.3,0.2,0.6,0.3,0.9,0.5c2.4,0.8,4.8,1.6,7.1,2.4c1.6,0.8,3.2,1.6,4.8,2.4
		c1.6,0.8,3.2,1.6,4.7,2.4c2.4,0.8,4.8,1.6,7.2,2.3c1.6,0.8,3.2,1.6,4.9,2.4c0.2,0.1,0.4,0.3,0.5,0.4c-0.2-0.1-0.4-0.1-0.7-0.2
		C348.2,212.4,346.6,211.6,344.9,210.8z"/>
	<path class="st0" d="M350.6,201.5c-0.1,0-0.1,0-0.2-0.1c0,0,0,0,0,0C350.5,201.4,350.6,201.5,350.6,201.5z"/>
	<path class="st0" d="M350.6,201.5C351,201.6,351.1,201.6,350.6,201.5L350.6,201.5z"/>
	<path class="st0" d="M350.4,201.4C350.4,201.4,350.4,201.4,350.4,201.4C351.2,202,350.9,201.8,350.4,201.4z"/>
	<path class="st0" d="M357.1,263.3c0.3,0.4,0.6,0.7,0.5,0.6c0.1,0-0.3-0.2-0.7-0.5c-0.8-0.8-1.6-1.6-2.4-2.4c0-0.1,0-0.1,0-0.2
		c0.1,0,0.1,0,0.2,0.1C355.5,261.7,356.3,262.5,357.1,263.3z"/>
</g>
</svg>
