<?xml version="1.0" encoding="utf-8"?>
<!-- Generator: Adobe Illustrator 24.3.0, SVG Export Plug-In . SVG Version: 6.00 Build 0)  -->
<svg version="1.1" id="Layer_1" xmlns="http://www.w3.org/2000/svg" xmlns:xlink="http://www.w3.org/1999/xlink" x="0px" y="0px"
	 viewBox="0 0 321 76.1" style="enable-background:new 0 0 321 76.1;" xml:space="preserve">
<style type="text/css">
	.st0{fill:#98002E;}
	.st1{fill:#FFFFFF;}
</style>
<g>
	<g>
		<g>
			<g>
				<g>
					<g>
						<path class="st0" d="M74.8,40.8c-0.6-0.3-0.7-0.5-0.7-1.3c0-2.1,0.2-4.5,0.2-5.1s0.2-1,0.5-1c0.4,0,0.4,0.4,0.4,0.7
							c0,0.5,0.2,1.3,0.4,2c0.9,2.9,3.2,3.9,5.6,3.9c3.5,0,5.2-2.4,5.2-4.5c0-1.9-0.6-3.7-3.8-6.3l-1.8-1.4
							c-4.3-3.4-5.8-6.1-5.8-9.3c0-4.3,3.6-7.4,9-7.4c2.5,0,4.2,0.4,5.2,0.7c0.4,0.1,0.5,0.2,0.5,0.5c0,0.5-0.2,1.6-0.2,4.7
							c0,0.9-0.1,1.2-0.4,1.2s-0.4-0.2-0.4-0.7c0-0.4-0.2-1.6-1-2.6C87.1,14.2,86,13,83.4,13c-2.9,0-4.7,1.7-4.7,4
							c0,1.8,0.9,3.2,4.1,5.6l1.1,0.8c4.7,3.6,6.4,6.3,6.4,10c0,2.3-0.9,5-3.7,6.8c-2,1.3-4.1,1.6-6.2,1.6
							C78.3,41.8,76.5,41.5,74.8,40.8z"/>
						<path class="st0" d="M97.3,32.9c-0.2,0-0.2,0-0.3,0.2l-1.8,4.5c-0.4,0.8-0.5,1.6-0.5,2c0,0.6,0.3,0.9,1.4,0.9h0.5
							c0.4,0,0.5,0.2,0.5,0.4c0,0.3-0.2,0.4-0.5,0.4c-1.1,0-2.7-0.1-3.8-0.1c-0.4,0-2.2,0.1-4,0.1c-0.4,0-0.6-0.1-0.6-0.4
							c0-0.2,0.1-0.4,0.4-0.4s0.7,0,1,0c1.6-0.2,2.2-1.2,2.9-2.9l9-20.9c0.4-0.9,0.7-1.3,1-1.3c0.5,0,0.7,0.3,1,1.1
							c0.8,1.8,6.6,15.4,8.8,20.5c1.3,3,2.3,3.4,2.9,3.6c0.5,0.1,0.9,0.1,1.3,0.1c0.3,0,0.5,0.1,0.5,0.4c0,0.3-0.2,0.4-1.5,0.4
							c-1.2,0-3.7,0-6.6-0.1c-0.6,0-1,0-1-0.3c0-0.2,0.1-0.3,0.4-0.4c0.2,0,0.5-0.4,0.3-0.7l-2.7-6.7c-0.1-0.2-0.2-0.2-0.4-0.2h-8.2
							V32.9z M104.7,31c0.2,0,0.2-0.1,0.2-0.2l-3.2-8.4c0-0.1-0.1-0.3-0.2-0.3s-0.2,0.2-0.2,0.3L98,30.8C97.9,31,98,31,98.1,31
							H104.7z"/>
						<path class="st0" d="M117.6,25.7c0-5,0-6,0-7c-0.1-1.1-0.4-1.5-1.2-1.8c-0.4-0.1-0.8-0.2-1.3-0.2c-0.4,0-0.5-0.1-0.5-0.4
							c0-0.2,0.3-0.3,0.8-0.3c1.3,0,3.6,0.1,4.6,0.1c0.9,0,3.1-0.1,4.4-0.1c0.4,0,0.7,0.1,0.7,0.3c0,0.3-0.2,0.4-0.5,0.4
							c-0.4,0-0.6,0-1,0.1c-0.9,0.2-1.2,0.6-1.3,1.8c-0.1,1.1-0.1,2-0.1,7v5.9c0,3.2,0,5.9,0.2,7.3c0.1,0.9,0.4,1.4,1.4,1.6
							c0.5,0.1,1.2,0.1,1.8,0.1c0.4,0,0.5,0.2,0.5,0.4s-0.3,0.4-0.7,0.4c-2.3,0-4.6-0.1-5.5-0.1c-0.8,0-3.1,0.1-4.5,0.1
							c-0.4,0-0.7-0.1-0.7-0.4c0-0.2,0.1-0.4,0.5-0.4c0.5,0,0.9,0,1.2-0.1c0.7-0.2,0.9-0.6,1-1.6c0.2-1.4,0.2-4,0.2-7.2V25.7z"/>
						<path class="st0" d="M133.1,36.7c0.1,2.6,0.5,3.4,1.2,3.6c0.6,0.2,1.3,0.2,1.8,0.2c0.4,0,0.6,0.2,0.6,0.4
							c0,0.3-0.3,0.4-0.8,0.4c-2.2,0-3.8-0.1-4.5-0.1c-0.3,0-2,0.1-3.7,0.1c-0.5,0-0.8,0-0.8-0.4c0-0.2,0.2-0.4,0.5-0.4
							c0.5,0,1.1,0,1.6-0.2c0.9-0.2,1-1.1,1.1-4l0.3-19.7c0-0.7,0.2-1.1,0.6-1.1c0.4,0,0.9,0.5,1.5,1.1c0.4,0.4,5.6,5.7,10.6,10.6
							c2.3,2.3,6.9,7,7.4,7.5h0.2l-0.4-14.8c0-2-0.4-2.6-1.2-2.9c-0.5-0.2-1.3-0.2-1.8-0.2c-0.4,0-0.5-0.2-0.5-0.4
							c0-0.3,0.4-0.3,0.9-0.3c1.8,0,3.6,0.1,4.4,0.1c0.4,0,1.7-0.1,3.4-0.1c0.5,0,0.8,0,0.8,0.3c0,0.2-0.2,0.4-0.6,0.4
							c-0.4,0-0.6,0-1.1,0.1c-0.9,0.3-1.2,0.9-1.2,2.7L153,40.5c0,0.7-0.3,1.1-0.5,1.1c-0.6,0-1.1-0.4-1.4-0.7
							c-2.1-2-6.4-6.1-10-9.6c-3.8-3.6-7.4-7.6-8.1-8.2h-0.1L133.1,36.7z"/>
						<path class="st0" d="M166.8,18.1l-5.1,0.1c-2,0-2.8,0.3-3.3,1c-0.4,0.5-0.5,0.9-0.6,1.1c-0.1,0.3-0.2,0.4-0.4,0.4
							s-0.3-0.2-0.3-0.5c0-0.5,0.7-3.8,0.7-4c0.1-0.4,0.2-0.6,0.4-0.6c0.3,0,0.6,0.3,1.5,0.4c1,0.1,2.3,0.2,3.4,0.2h14
							c1.1,0,1.8-0.1,2.3-0.2s0.8-0.2,0.9-0.2c0.2,0,0.3,0.2,0.3,0.7c0,0.7-0.1,3.2-0.1,4c0,0.4-0.1,0.5-0.3,0.5
							c-0.3,0-0.4-0.2-0.4-0.7v-0.4c-0.1-0.9-1-1.9-4.1-1.9l-4.3-0.1v13.4c0,3,0,5.7,0.2,7.1c0.1,0.9,0.3,1.6,1.3,1.7
							c0.5,0.1,1.2,0.1,1.8,0.1c0.4,0,0.5,0.2,0.5,0.4s-0.3,0.4-0.7,0.4c-2.3,0-4.6-0.1-5.5-0.1c-0.8,0-3.1,0.1-4.5,0.1
							c-0.4,0-0.7-0.1-0.7-0.4c0-0.2,0.1-0.4,0.5-0.4c0.5,0,0.9,0,1.2-0.1c0.7-0.2,0.9-0.8,1-1.8c0.2-1.4,0.2-4,0.2-7.1V18.1H166.8z
							"/>
						<path class="st0" d="M196.3,11.8c0.1-0.7,0.4-1,0.7-1s0.5,0.2,1.1,1.2l10.7,22l10.6-22.3c0.3-0.6,0.5-0.9,0.9-0.9
							s0.6,0.4,0.7,1.2l3.6,24.2c0.4,2.5,0.7,3.6,1.9,3.9c1.1,0.4,1.9,0.4,2.4,0.4c0.4,0,0.6,0,0.6,0.3s-0.5,0.4-1,0.4
							c-1,0-6.4-0.1-7.9-0.2c-0.9-0.1-1.1-0.2-1.1-0.4s0.2-0.3,0.4-0.4c0.2-0.1,0.4-0.6,0.2-1.7l-2.3-17.2h-0.2L208.9,39
							c-0.9,1.8-1.1,2.2-1.4,2.2c-0.4,0-0.7-0.8-1.4-2c-0.9-1.8-4-7.8-4.5-8.9c-0.4-0.8-2.7-5.7-4.1-8.7h-0.2l-2,15.6
							c-0.1,0.7-0.1,1.2-0.1,1.8c0,0.7,0.5,1.1,1.2,1.2c0.7,0.2,1.2,0.2,1.6,0.2c0.3,0,0.6,0.1,0.6,0.3c0,0.4-0.4,0.4-0.9,0.4
							c-1.6,0-3.4-0.1-4.1-0.1c-0.7,0-2.6,0.1-3.9,0.1c-0.4,0-0.7-0.1-0.7-0.4c0-0.2,0.2-0.3,0.6-0.3c0.3,0,0.6,0,1.2-0.1
							c1.1-0.2,1.4-1.8,1.6-3.1L196.3,11.8z"/>
						<path class="st0" d="M234.3,32.9c-0.2,0-0.2,0-0.3,0.2l-1.8,4.5c-0.4,0.8-0.5,1.6-0.5,2c0,0.6,0.3,0.9,1.4,0.9h0.5
							c0.4,0,0.5,0.2,0.5,0.4c0,0.3-0.2,0.4-0.5,0.4c-1.1,0-2.7-0.1-3.8-0.1c-0.4,0-2.2,0.1-4,0.1c-0.4,0-0.6-0.1-0.6-0.4
							c0-0.2,0.1-0.4,0.4-0.4c0.3,0,0.7,0,1,0c1.6-0.2,2.1-1.2,2.9-2.9l9-20.9c0.4-0.9,0.7-1.3,1-1.3c0.5,0,0.7,0.3,1,1.1
							c0.8,1.8,6.6,15.4,8.8,20.5c1.3,3,2.3,3.4,2.9,3.6c0.5,0.1,0.9,0.1,1.3,0.1c0.3,0,0.5,0.1,0.5,0.4c0,0.3-0.2,0.4-1.5,0.4
							c-1.2,0-3.7,0-6.6-0.1c-0.6,0-1,0-1-0.3c0-0.2,0.1-0.3,0.4-0.4c0.2,0,0.5-0.4,0.3-0.7l-2.7-6.7c-0.1-0.2-0.2-0.2-0.4-0.2h-8.2
							V32.9z M241.7,31c0.2,0,0.2-0.1,0.2-0.2l-3.2-8.4c0-0.1-0.1-0.3-0.2-0.3c-0.1,0-0.2,0.2-0.2,0.3l-3.3,8.4
							c-0.1,0.2,0,0.2,0.1,0.2H241.7z"/>
						<path class="st0" d="M255.8,25.7c0-5,0-6,0-7c-0.1-1.1-0.4-1.5-1.5-1.8c-0.3-0.1-0.9-0.1-1.4-0.1c-0.4,0-0.6-0.1-0.6-0.4
							c0-0.2,0.3-0.3,0.8-0.3c1.8,0,4,0.1,4.7,0.1c1.2,0,4.3-0.1,5.4-0.1c2.2,0,4.7,0.2,6.5,1.4c1,0.7,2.4,2.3,2.4,4.6
							c0,2.5-1.4,4.7-4.8,7.3c3,3.8,5.5,6.8,7.5,8.8c1.9,1.9,3.1,2.1,3.7,2.2c0.4,0.1,0.5,0.1,0.8,0.1s0.4,0.2,0.4,0.4
							c0,0.3-0.2,0.4-0.7,0.4h-3.3c-1.9,0-2.9-0.2-3.8-0.7c-1.5-0.7-2.8-2.3-4.7-4.9c-1.4-1.8-2.8-4-3.2-4.5
							c-0.2-0.2-0.4-0.2-0.6-0.2l-3.1-0.1c-0.2,0-0.3,0.1-0.3,0.3v0.5c0,3.1,0,5.7,0.2,7.1c0.1,1,0.3,1.6,1.3,1.8
							c0.5,0.1,1.2,0.1,1.7,0.1c0.3,0,0.4,0.2,0.4,0.4s-0.3,0.4-0.7,0.4c-2,0-4.8-0.1-5.4-0.1c-0.7,0-2.9,0.1-4.2,0.1
							c-0.4,0-0.7-0.1-0.7-0.4c0-0.2,0.1-0.4,0.5-0.4c0.5,0,0.9,0,1.2-0.1c0.7-0.2,0.9-0.8,1-1.8c0.2-1.4,0.2-4,0.2-7.1v-6H255.8z
							 M260.2,28.3c0,0.4,0.1,0.5,0.3,0.6c0.7,0.2,1.8,0.3,2.6,0.3c1.4,0,1.8-0.1,2.4-0.5c1.1-0.7,2.2-2.2,2.2-4.9
							c0-4.7-3.2-5.9-5.2-5.9c-0.9,0-1.7,0-2,0.1c-0.2,0.1-0.3,0.2-0.3,0.5V28.3z"/>
						<path class="st0" d="M284.7,32.6c0-1.8-0.3-2.5-0.8-3.5c-0.2-0.5-4.9-7.8-6.1-9.6c-0.9-1.2-1.6-2-2.2-2.3
							c-0.4-0.2-1-0.4-1.4-0.4c-0.3,0-0.5-0.1-0.5-0.4c0-0.2,0.2-0.3,0.7-0.3c0.6,0,3.2,0.1,4.3,0.1c0.7,0,2.3-0.1,3.9-0.1
							c0.3,0,0.5,0.1,0.5,0.3c0,0.3-0.2,0.3-0.8,0.4c-0.3,0.1-0.5,0.2-0.5,0.5s0.2,0.7,0.4,1.1c0.6,1,5.1,8.8,5.7,9.7
							c0.4-0.8,4.6-7.9,5.1-8.9c0.4-0.7,0.5-1.3,0.5-1.8c0-0.3-0.2-0.6-0.7-0.7c-0.3-0.1-0.6-0.1-0.6-0.4c0-0.2,0.2-0.3,0.6-0.3
							c1.1,0,2.3,0.1,3.4,0.1c0.7,0,3-0.1,3.7-0.1c0.4,0,0.6,0.1,0.6,0.3c0,0.2-0.3,0.4-0.7,0.4c-0.4,0-1,0.2-1.5,0.4
							c-0.7,0.4-1.1,0.7-1.8,1.6c-1.1,1.3-6.1,9.2-6.7,10.6c-0.5,1.2-0.4,2.2-0.4,3.3v2.7c0,0.5,0,1.9,0.1,3.3
							c0.1,1,0.4,1.6,1.4,1.8c0.5,0.1,1.2,0.1,1.7,0.1c0.4,0,0.6,0.2,0.6,0.4s-0.3,0.4-0.7,0.4c-2.2,0-4.5-0.1-5.4-0.1
							s-3.2,0.1-4.5,0.1c-0.5,0-0.7-0.1-0.7-0.4c0-0.2,0.2-0.4,0.5-0.4c0.5,0,0.9,0,1.2-0.1c0.7-0.2,1-0.8,1.1-1.8
							c0.1-1.4,0.1-2.8,0.1-3.3v-2.7H284.7z"/>
						<path class="st0" d="M303.9,6.1c-0.4-0.4-0.4-0.5-0.4-0.7c0-0.1,0.2-0.3,0.4-0.3c0.8,0,2.5,0.5,3.2,0.7c1,0.3,1.1,0.5,1.1,1.1
							c0,2.4-2.5,6.6-4.3,8.4c-0.2,0.2-0.4,0.3-0.6,0.3c-0.1,0-0.2-0.1-0.2-0.2c0-0.1,0-0.2,0.2-0.5c0.7-1.4,1.5-3.7,1.5-6.1
							C304.8,7.5,304.2,6.4,303.9,6.1z"/>
						<path class="st0" d="M306.2,40.8c-0.5-0.2-0.7-0.4-0.7-1.1c0-1.8,0.2-3.9,0.2-4.4s0.2-0.9,0.4-0.9c0.3,0,0.4,0.3,0.4,0.5
							c0,0.4,0.1,1.1,0.3,1.7c0.7,2.5,3.3,3.3,5.5,3.3c3,0,4.8-1.9,4.8-4.2c0-1.4-0.4-2.9-3.4-4.7l-2-1.2c-4.1-2.4-5.4-4.6-5.4-7.5
							c0-4.1,3.9-6.7,8.7-6.7c2.2,0,4,0.3,4.9,0.5c0.3,0.1,0.5,0.2,0.5,0.4c0,0.4-0.1,1.4-0.1,4c0,0.7-0.2,1.1-0.4,1.1
							c-0.2,0-0.4-0.2-0.4-0.6c0-0.3-0.2-1.3-0.9-2.2c-0.5-0.6-1.6-1.6-3.8-1.6c-2.5,0-4.7,1.3-4.7,3.6c0,1.5,0.5,2.7,3.6,4.4
							l1.4,0.8c4.5,2.5,5.9,5,5.9,8.1c0,2.5-0.9,4.5-3.4,6.2c-1.6,1.2-3.9,1.4-5.7,1.4C309.8,41.7,307.7,41.5,306.2,40.8z"/>
						<path class="st0" d="M73.7,58c0-3.7,0-4.4,0-5.2c-0.1-0.9-0.3-1.1-1.1-1.3c-0.2-0.1-0.6-0.1-1-0.1c-0.3,0-0.4-0.1-0.4-0.3
							s0.2-0.2,0.6-0.2c1.4,0,3.1,0.1,3.8,0.1c0.6,0,2.3-0.1,3.3-0.1c0.4,0,0.6,0.1,0.6,0.2c0,0.2-0.1,0.3-0.4,0.3s-0.4,0-0.8,0.1
							c-0.7,0.1-0.9,0.5-0.9,1.3c-0.1,0.8-0.1,1.5-0.1,5.2v3.5c0,3.6,0.7,5,1.9,6c1.1,0.9,2.3,1,3.2,1c1.1,0,2.4-0.3,3.4-1.3
							c1.4-1.3,1.5-3.5,1.5-6V58c0-3.7,0-4.4-0.1-5.2s-0.3-1.1-1.1-1.3c-0.2-0.1-0.6-0.1-0.9-0.1s-0.4-0.1-0.4-0.3s0.2-0.2,0.5-0.2
							c1.3,0,3,0.1,3,0.1c0.3,0,2-0.1,3-0.1c0.3,0,0.5,0.1,0.5,0.2c0,0.2-0.1,0.3-0.4,0.3s-0.4,0-0.8,0.1c-0.7,0.1-0.9,0.5-0.9,1.3
							s-0.1,1.5-0.1,5.2v2.6c0,2.8-0.3,5.7-2.4,7.4c-1.8,1.5-3.7,1.8-5.4,1.8c-1.3,0-4-0.1-5.8-1.7c-1.3-1.1-2.3-3-2.3-6.5L73.7,58
							L73.7,58z"/>
						<path class="st0" d="M94.9,66.1c0.1,1.9,0.4,2.5,0.9,2.7c0.4,0.1,0.9,0.2,1.3,0.2c0.3,0,0.4,0.1,0.4,0.3
							c0,0.2-0.2,0.3-0.6,0.3c-1.7,0-2.8-0.1-3.3-0.1c-0.2,0-1.5,0.1-2.8,0.1c-0.3,0-0.6,0-0.6-0.3c0-0.1,0.2-0.3,0.4-0.3
							c0.3,0,0.8,0,1.2-0.1c0.7-0.2,0.8-0.8,0.8-3l0.2-14.6c0-0.5,0.2-0.8,0.4-0.8c0.3,0,0.7,0.4,1.1,0.8c0.3,0.3,4.1,4.2,7.9,7.9
							c1.7,1.7,5.1,5.2,5.5,5.5h0.1l-0.3-11c0-1.5-0.3-1.9-0.9-2.2c-0.4-0.1-1-0.1-1.3-0.1s-0.4-0.1-0.4-0.3s0.3-0.2,0.6-0.2
							c1.3,0,2.7,0.1,3.2,0.1c0.3,0,1.2-0.1,2.5-0.1c0.3,0,0.6,0,0.6,0.2c0,0.1-0.1,0.3-0.4,0.3s-0.5,0-0.8,0.1
							c-0.7,0.2-0.9,0.6-0.9,2L109.6,69c0,0.6-0.2,0.8-0.4,0.8c-0.4,0-0.8-0.3-1-0.5c-1.6-1.5-4.8-4.5-7.5-7.1
							c-2.8-2.7-5.5-5.7-6-6.1h-0.1L94.9,66.1z"/>
						<path class="st0" d="M114.2,58c0-3.7,0-4.4,0-5.2c-0.1-0.8-0.3-1.1-0.9-1.3c-0.3-0.1-0.6-0.1-0.9-0.1s-0.4-0.1-0.4-0.3
							c0-0.1,0.2-0.2,0.6-0.2c1,0,2.7,0.1,3.4,0.1c0.6,0,2.3-0.1,3.3-0.1c0.3,0,0.5,0.1,0.5,0.2c0,0.2-0.1,0.3-0.4,0.3
							s-0.5,0-0.8,0.1c-0.7,0.1-0.9,0.5-1,1.3s-0.1,1.5-0.1,5.2v4.3c0,2.4,0,4.4,0.1,5.4c0.1,0.7,0.3,1,1,1.2
							c0.3,0.1,0.9,0.1,1.3,0.1c0.3,0,0.4,0.1,0.4,0.3c0,0.2-0.2,0.3-0.5,0.3c-1.7,0-3.4-0.1-4.1-0.1c-0.6,0-2.3,0.1-3.3,0.1
							c-0.3,0-0.5-0.1-0.5-0.3c0-0.1,0.1-0.3,0.4-0.3c0.4,0,0.7,0,0.9-0.1c0.5-0.1,0.7-0.5,0.8-1.2c0.1-1,0.1-3,0.1-5.4L114.2,58
							L114.2,58z"/>
						<path class="st0" d="M122.9,53.3c-0.6-1.4-1-1.6-1.9-1.8c-0.4-0.1-0.8-0.1-1-0.1s-0.3-0.1-0.3-0.3s0.3-0.2,0.6-0.2
							c1.4,0,2.8,0.1,3.7,0.1c0.6,0,2-0.1,3.2-0.1c0.3,0,0.6,0.1,0.6,0.2c0,0.2-0.2,0.3-0.4,0.3c-0.4,0-0.8,0-1,0.2
							c-0.2,0.1-0.3,0.3-0.3,0.5c0,0.3,0.2,1,0.6,1.9l4.3,11h0.1c1.1-2.6,4.4-10.5,5-12.1c0.1-0.3,0.2-0.7,0.2-0.9
							c0-0.3-0.1-0.3-0.3-0.4c-0.3-0.1-0.7-0.1-1-0.1c-0.2,0-0.4-0.1-0.4-0.3s0.2-0.2,0.7-0.2c1.3,0,2.4,0.1,2.7,0.1
							c0.4,0,1.6-0.1,2.4-0.1c0.3,0,0.5,0.1,0.5,0.2c0,0.2-0.1,0.3-0.4,0.3c-0.3,0-0.8,0-1.2,0.3c-0.3,0.2-0.7,0.6-1.3,2.2
							c-1,2.3-1.7,3.7-3.1,6.7c-1.6,3.6-2.8,6.3-3.4,7.5c-0.6,1.4-0.9,1.8-1.2,1.8s-0.6-0.3-1-1.5L122.9,53.3z"/>
						<path class="st0" d="M143,58c0-3.7,0-4.4,0-5.2c-0.1-0.8-0.3-1.1-1-1.3c-0.2-0.1-0.6-0.1-1-0.1c-0.2,0-0.4-0.1-0.4-0.3
							s0.2-0.2,0.5-0.2c1.3,0,2.8,0.1,3.5,0.1c0.8,0,6.1,0,6.5,0s0.8-0.1,1-0.1c0.1,0,0.3-0.1,0.4-0.1c0.1,0,0.2,0.1,0.2,0.2
							c0,0.2-0.1,0.5-0.2,1.6c0,0.3-0.1,1.3-0.1,1.6c0,0.1-0.1,0.4-0.3,0.4s-0.2-0.1-0.2-0.3s0-0.6-0.2-0.9
							c-0.2-0.4-0.4-0.8-1.6-0.9c-0.4-0.1-3.3-0.1-3.8-0.1c-0.1,0-0.2,0.1-0.2,0.2v6.1c0,0.1,0,0.3,0.2,0.3c0.5,0,3.7,0,4.2-0.1
							c0.6-0.1,0.9-0.1,1.1-0.4c0.2-0.2,0.3-0.3,0.4-0.3c0.1,0,0.2,0.1,0.2,0.3c0,0.1-0.1,0.6-0.2,1.8c-0.1,0.5-0.1,1.5-0.1,1.7
							s0,0.6-0.2,0.6s-0.2-0.1-0.2-0.2c0-0.3,0-0.6-0.1-0.9c-0.1-0.5-0.4-0.9-1.3-1c-0.4-0.1-3.2-0.1-3.8-0.1
							c-0.1,0-0.1,0.1-0.1,0.3v2c0,0.8,0,2.9,0,3.7c0.1,1.7,0.8,2.1,3.2,2.1c0.6,0,1.6,0,2.3-0.3c0.6-0.3,0.9-0.8,1-1.8
							c0.1-0.3,0.1-0.4,0.3-0.4s0.2,0.3,0.2,0.6c0,0.6-0.2,2.2-0.3,2.7c-0.2,0.6-0.4,0.6-1.3,0.6c-1.8,0-3.2,0-4.4-0.1
							c-1.2,0-2.1-0.1-2.8-0.1c-0.3,0-0.8,0-1.4,0c-0.6,0-1.2,0.1-1.7,0.1c-0.3,0-0.5-0.1-0.5-0.3c0-0.1,0.1-0.3,0.4-0.3
							c0.4,0,0.6,0,0.8-0.1c0.5-0.1,0.6-0.6,0.7-1.3c0.1-1,0.1-3,0.1-5.2V58H143z"/>
						<path class="st0" d="M156.2,58c0-3.7,0-4.4,0-5.2c-0.1-0.8-0.3-1.1-1.1-1.3c-0.2-0.1-0.6-0.1-1-0.1c-0.3,0-0.4-0.1-0.4-0.3
							s0.2-0.2,0.6-0.2c1.3,0,3,0.1,3.5,0.1c0.9,0,3.2-0.1,4-0.1c1.6,0,3.5,0.1,4.8,1c0.7,0.5,1.8,1.7,1.8,3.4c0,1.8-1,3.5-3.5,5.5
							c2.3,2.8,4.1,5,5.6,6.6c1.4,1.4,2.3,1.5,2.7,1.6c0.3,0.1,0.4,0.1,0.6,0.1c0.2,0,0.3,0.1,0.3,0.3c0,0.2-0.2,0.3-0.5,0.3h-2.4
							c-1.4,0-2.1-0.1-2.8-0.5c-1.1-0.6-2.1-1.7-3.5-3.6c-1-1.3-2.1-3-2.4-3.4c-0.1-0.1-0.3-0.2-0.5-0.2l-2.3-0.1
							c-0.1,0-0.2,0.1-0.2,0.2v0.3c0,2.3,0,4.2,0.1,5.2c0.1,0.7,0.2,1.2,1,1.3c0.4,0.1,0.9,0.1,1.2,0.1c0.2,0,0.3,0.1,0.3,0.3
							c0,0.2-0.2,0.3-0.5,0.3c-1.5,0-3.6-0.1-4-0.1c-0.5,0-2.1,0.1-3.1,0.1c-0.3,0-0.5-0.1-0.5-0.3c0-0.1,0.1-0.3,0.4-0.3
							c0.4,0,0.7,0,0.9-0.1c0.5-0.1,0.7-0.6,0.8-1.3c0.1-1,0.1-3,0.1-5.2L156.2,58L156.2,58z M159.4,59.9c0,0.3,0.1,0.3,0.2,0.4
							c0.6,0.2,1.3,0.2,1.9,0.2c1,0,1.4-0.1,1.8-0.4c0.8-0.6,1.7-1.6,1.7-3.7c0-3.5-2.4-4.4-3.9-4.4c-0.6,0-1.2,0-1.5,0.1
							c-0.2,0.1-0.2,0.1-0.2,0.3V59.9z"/>
						<path class="st0" d="M171.6,69.2c-0.4-0.2-0.5-0.3-0.5-0.8c0-1.4,0.1-2.9,0.1-3.2c0-0.4,0.1-0.6,0.3-0.6s0.2,0.2,0.2,0.4
							c0,0.3,0.1,0.8,0.2,1.3c0.5,1.8,1.9,2.5,3.4,2.5c2.1,0,3.2-1.5,3.2-2.8c0-1.2-0.4-2.4-2.3-4l-1.1-0.9
							c-2.6-2.1-3.5-3.9-3.5-5.9c0-2.7,2.2-4.7,5.5-4.7c1.5,0,2.5,0.2,3.2,0.4c0.2,0.1,0.3,0.1,0.3,0.3c0,0.3-0.1,1-0.1,3
							c0,0.5-0.1,0.7-0.3,0.7s-0.2-0.1-0.2-0.4c0-0.2-0.1-1-0.6-1.6c-0.4-0.5-1-1.2-2.6-1.2c-1.8,0-2.8,1.1-2.8,2.6
							c0,1.1,0.5,2,2.5,3.6l0.7,0.5c2.9,2.3,3.9,4,3.9,6.3c0,1.4-0.5,3.2-2.2,4.3c-1.2,0.8-2.5,1-3.8,1
							C173.7,69.8,172.6,69.7,171.6,69.2z"/>
						<path class="st0" d="M185.1,58c0-3.7,0-4.4,0-5.2c-0.1-0.8-0.3-1.1-0.9-1.3c-0.3-0.1-0.6-0.1-0.9-0.1c-0.3,0-0.4-0.1-0.4-0.3
							c0-0.1,0.2-0.2,0.6-0.2c1,0,2.7,0.1,3.4,0.1c0.6,0,2.3-0.1,3.3-0.1c0.3,0,0.5,0.1,0.5,0.2c0,0.2-0.1,0.3-0.4,0.3
							c-0.3,0-0.5,0-0.8,0.1c-0.7,0.1-0.9,0.5-1,1.3s-0.1,1.5-0.1,5.2v4.3c0,2.4,0,4.4,0.1,5.4c0.1,0.7,0.3,1,1,1.2
							c0.3,0.1,0.9,0.1,1.3,0.1c0.3,0,0.4,0.1,0.4,0.3c0,0.2-0.2,0.3-0.5,0.3c-1.7,0-3.4-0.1-4.1-0.1c-0.6,0-2.3,0.1-3.3,0.1
							c-0.3,0-0.5-0.1-0.5-0.3c0-0.1,0.1-0.3,0.4-0.3c0.4,0,0.7,0,0.9-0.1c0.5-0.1,0.7-0.5,0.8-1.2c0.1-1,0.1-3,0.1-5.4L185.1,58
							L185.1,58z"/>
						<path class="st0" d="M198.2,52.4l-3.6,0.1c-1.4,0-2,0.2-2.4,0.8c-0.2,0.3-0.4,0.7-0.4,0.8c-0.1,0.2-0.1,0.3-0.3,0.3
							s-0.2-0.1-0.2-0.4c0-0.4,0.5-2.8,0.5-3c0.1-0.3,0.1-0.5,0.3-0.5s0.4,0.2,1.1,0.3c0.7,0.1,1.6,0.1,2.4,0.1h9.9
							c0.8,0,1.3-0.1,1.7-0.1c0.4-0.1,0.6-0.1,0.7-0.1c0.2,0,0.2,0.1,0.2,0.5c0,0.5-0.1,2.3-0.1,3c0,0.3-0.1,0.4-0.2,0.4
							c-0.2,0-0.3-0.1-0.3-0.5v-0.3c-0.1-0.6-0.7-1.4-2.9-1.4l-3.1-0.1v10c0,2.3,0,4.2,0.1,5.3c0.1,0.7,0.2,1.2,0.9,1.3
							c0.3,0.1,0.9,0.1,1.3,0.1c0.3,0,0.4,0.1,0.4,0.3c0,0.2-0.2,0.3-0.5,0.3c-1.6,0-3.3-0.1-4-0.1c-0.6,0-2.2,0.1-3.2,0.1
							c-0.3,0-0.5-0.1-0.5-0.3c0-0.1,0.1-0.3,0.4-0.3c0.4,0,0.7,0,0.9-0.1c0.5-0.1,0.6-0.6,0.7-1.3c0.1-1,0.1-3,0.1-5.2v-10H198.2z"
							/>
						<path class="st0" d="M216.7,63.1c0-1.3-0.2-1.9-0.6-2.6c-0.2-0.4-3.7-5.8-4.6-7.1c-0.6-0.9-1.2-1.5-1.7-1.7
							c-0.3-0.2-0.8-0.3-1.1-0.3c-0.2,0-0.4-0.1-0.4-0.3s0.2-0.2,0.5-0.2c0.4,0,2.3,0.1,3.2,0.1c0.6,0,1.7-0.1,2.9-0.1
							c0.2,0,0.4,0.1,0.4,0.2c0,0.2-0.2,0.2-0.6,0.3c-0.2,0.1-0.3,0.2-0.3,0.4s0.1,0.5,0.3,0.8c0.5,0.8,3.8,6.5,4.2,7.2
							c0.3-0.6,3.4-5.9,3.8-6.6c0.3-0.6,0.4-1,0.4-1.3c0-0.2-0.1-0.5-0.6-0.6c-0.2-0.1-0.5-0.1-0.5-0.3s0.1-0.2,0.4-0.2
							c0.8,0,1.7,0.1,2.5,0.1c0.6,0,2.2-0.1,2.7-0.1c0.3,0,0.5,0.1,0.5,0.2c0,0.2-0.2,0.3-0.5,0.3s-0.7,0.1-1.1,0.3
							c-0.6,0.3-0.8,0.5-1.3,1.2c-0.8,1-4.5,6.8-5,7.9c-0.4,0.9-0.3,1.7-0.3,2.5v2c0,0.4,0,1.4,0.1,2.5c0.1,0.7,0.3,1.2,1,1.3
							c0.4,0.1,0.9,0.1,1.3,0.1c0.3,0,0.4,0.1,0.4,0.3c0,0.2-0.2,0.3-0.6,0.3c-1.6,0-3.3-0.1-4-0.1c-0.6,0-2.3,0.1-3.3,0.1
							c-0.3,0-0.6-0.1-0.6-0.3c0-0.1,0.1-0.3,0.4-0.3c0.3,0,0.7,0,0.9-0.1c0.5-0.1,0.7-0.6,0.8-1.3c0.1-1,0.1-2.1,0.1-2.5v-2.1
							H216.7z"/>
					</g>
				</g>
			</g>
		</g>
	</g>
</g>
<path class="st1" d="M20.9,0.5h9.2c0,0,1.4,0.2,1.6,1.1c0,0,0.9-1.2,1.9-1.1h9l0.9,12.1l-23.3,0.2L20.9,0.5z"/>
<path class="st0" d="M63.3,13.1H44.2l-1-13V0h-9.3c-1,0-1.6,0.4-1.9,0.9C31.6,0.5,31,0,30,0h-9.3l-1,13.1H0.5c0,0-7,51.2,31.4,62.9
	C70.8,63.9,63.3,13.1,63.3,13.1z M31.4,12.4H21l0.7-11.3h8.4c1.2,0,1.3,0.9,1.3,1.1v6V12.4z M32.4,8.2v-6c0-0.2,0.2-1.1,1.3-1.1h8.4
	l0.7,11.4c-0.8,0-6.4,0-10.5,0L32.4,8.2z"/>
<path class="st1" d="M60.6,32.7c-3.3-0.8-10.7-0.2-17,3.3c-6.1,3.3-11.3,3.4-11.7,3.4c-0.4,0-5.7-0.1-11.7-3.4
	c-6.3-3.4-13.7-4-17-3.2c0,0,1.3,30.9,28.8,40.9h0.1C59.4,63.6,60.6,32.7,60.6,32.7z"/>
<path class="st0" d="M41.6,63.4c-3.1-0.2-2.2,2.6-2.2,2.6c-5.3-0.8-6.8,2.4-7.1,3.4v1.2h-0.8v-1.3c-0.5-1.2-2.1-4-7.1-3.2
	c0,0,0.9-2.8-2.2-2.6c0,0,1.8-1.7-1-3.4c0,0,2.5-0.6,0.8-3c0,0,1.6-0.2,2.3-2.1c0,0,0.9,1.2,2.3,0.1c0,0-0.3,1.5,1.5,2.2
	c0,0-2.4,0.3-1.2,2.4c-0.7,0.3-1.3,2.3,0.8,2.6c0,0-1.2,1.7,1.3,2.9c1.6,0.8,2.3,1.5,2.6,1.9V64c-1.7-0.2-3-1.7-3-3.4
	c0-1.9,1.5-3.5,3.4-3.5s3.5,1.5,3.5,3.5c0,1.8-1.4,3.3-3.2,3.4v3.2c0.3-0.4,0.9-1.2,2.7-2c2.5-1.2,1.3-2.9,1.3-2.9
	c2.1-0.3,1.5-2.4,0.8-2.6c1.1-2.1-1.2-2.4-1.2-2.4c1.7-0.7,1.5-2.2,1.5-2.2c1.4,1.2,2.3-0.1,2.3-0.1c0.7,1.9,2.3,2.1,2.3,2.1
	c-1.7,2.4,0.8,3,0.8,3C39.8,61.7,41.6,63.4,41.6,63.4z"/>
<path class="st0" d="M51.7,50.1c0,0,0.3,1.2-0.6,0.6c-0.9-0.5-3.8-2-5.7-1.9l0,0l0,0l0,0l0,0c-1.9-0.1-4.8,1.4-5.7,1.9
	s-0.6-0.6-0.6-0.6c0.9-5.9-2.4-8.3-2.4-8.3s2-0.3,3.2,1.1c0,0,0.2-0.9,0.7-1c0,0-0.3,3.4,1.6,2.5c2-0.9-0.1-3.7-0.6-4
	c0,0,1.5-0.3,2.5,0.4c0,0,0.7-2,1.1-2.1l0,0l0,0l0,0l0,0c0.4,0.1,1.1,2.1,1.1,2.1c1-0.7,2.5-0.4,2.5-0.4c-0.4,0.3-2.5,3.1-0.6,4
	c2,0.9,1.6-2.5,1.6-2.5c0.5,0.1,0.7,1,0.7,1c1.3-1.4,3.2-1.1,3.2-1.1S50.8,44.2,51.7,50.1z"/>
<path class="st0" d="M25.3,50.1c0,0,0.3,1.2-0.6,0.6c-0.9-0.5-3.8-2-5.7-1.9l0,0l0,0l0,0l0,0c-1.9-0.1-4.8,1.4-5.7,1.9
	s-0.6-0.6-0.6-0.6c0.9-5.9-2.4-8.3-2.4-8.3s2-0.3,3.2,1.1c0,0,0.2-0.9,0.7-1c0,0-0.3,3.4,1.6,2.5c2-0.9-0.1-3.7-0.6-4
	c0,0,1.5-0.3,2.5,0.4c0,0,0.7-2,1.1-2.1l0,0l0,0l0,0l0,0c0.4,0.1,1.1,2.1,1.1,2.1c1-0.7,2.5-0.4,2.5-0.4c-0.4,0.3-2.5,3.2-0.6,4
	c2,0.9,1.6-2.5,1.6-2.5c0.5,0.1,0.7,1,0.7,1c1.3-1.4,3.2-1.1,3.2-1.1S24.3,44.2,25.3,50.1z"/>
<path class="st1" d="M41.9,24.3c0.1-0.2,0-0.5-0.2-0.7s-0.4-0.3-0.7-0.2l-0.9-0.9v-1.3c0.2-0.1,0.3-0.4,0.3-0.6
	c0-0.3-0.1-0.5-0.3-0.6c-0.2-1.2-1.1-2.1-2.3-2.2c-0.1-0.2-0.4-0.4-0.7-0.4s-0.5,0.1-0.7,0.4h-1.1l-0.9-0.9c0.1-0.2,0-0.5-0.2-0.7
	C34,16,33.7,15.9,33.5,16c-0.4-0.3-1-0.5-1.6-0.5s-1.2,0.2-1.7,0.6c-0.2-0.1-0.5,0-0.7,0.2s-0.3,0.5-0.2,0.7l-0.8,0.8h-1.1
	c-0.1-0.2-0.4-0.4-0.6-0.4c-0.3,0-0.5,0.1-0.7,0.4c-1.1,0.1-2.1,1-2.3,2.2c-0.2,0.1-0.4,0.4-0.4,0.7c0,0.3,0.1,0.5,0.4,0.7v1.2
	L23,23.3c-0.2-0.1-0.5,0-0.7,0.2S22,24,22.1,24.2c-0.7,0.9-0.7,2.2-0.1,3.1c-0.1,0.2,0,0.5,0.2,0.8c0.2,0.2,0.5,0.3,0.7,0.2l0.9,0.9
	v1.3c-0.2,0.1-0.4,0.4-0.4,0.7c0,0.3,0.2,0.6,0.4,0.7c0.2,1.1,1.2,2,2.3,2.1c0.1,0.2,0.4,0.4,0.7,0.4c0.3,0,0.5-0.1,0.6-0.4h1.2
	l0.9,0.9c-0.1,0.2,0,0.5,0.2,0.7s0.5,0.3,0.8,0.2c0.4,0.3,1,0.5,1.5,0.5c0.6,0,1.2-0.2,1.6-0.6c0.2,0.1,0.5,0,0.7-0.2
	s0.3-0.5,0.2-0.7l0.8-0.8h1.1c0.1,0.2,0.4,0.4,0.6,0.4c0.3,0,0.5-0.1,0.7-0.4c1.2-0.1,2.2-1,2.3-2.2c0.2-0.1,0.3-0.4,0.3-0.6
	c0-0.3-0.1-0.5-0.3-0.6v-1.3l0.8-0.8c0.1,0,0.1,0,0.2,0c0.2,0,0.4-0.1,0.5-0.2c0.2-0.2,0.3-0.5,0.2-0.7
	C42.6,26.6,42.6,25.3,41.9,24.3z M39,23v5.8l-4.1,4.1h-5.8L25,28.8V23l4.1-4.1h5.8L39,23z"/>
<rect x="24" y="3.8" class="st0" width="4.8" height="1.8"/>
<rect x="35.4" y="3.8" class="st0" width="4.8" height="1.8"/>
<rect x="24" y="7.7" class="st0" width="4.8" height="1.8"/>
<rect x="35.4" y="7.7" class="st0" width="4.8" height="1.8"/>
<g>
	<path class="st0" d="M30.1,56.3c0,0,1.7-0.9,3.8,0c0.1-0.2,2.3-5,2.3-5s-1.4-1-4.2-1c-2.9,0-4.2,1-4.2,1L30.1,56.3z"/>
</g>
</svg>
